<svg width="32" height="32" viewBox="0 0 32 32" fill="none" xmlns="http://www.w3.org/2000/svg">
<rect width="32" height="32" rx="16" fill="#1E1E1E"/>
<path d="M12.22 7H19.78C22.66 7 25 9.34 25 12.22V19.78C25 21.1644 24.45 22.4922 23.4711 23.4711C22.4922 24.45 21.1644 25 19.78 25H12.22C9.34 25 7 22.66 7 19.78V12.22C7 10.8356 7.54996 9.50784 8.5289 8.5289C9.50784 7.54996 10.8356 7 12.22 7ZM12.04 8.8C11.1807 8.8 10.3566 9.14136 9.74897 9.74897C9.14136 10.3566 8.8 11.1807 8.8 12.04V19.96C8.8 21.751 10.249 23.2 12.04 23.2H19.96C20.8193 23.2 21.6434 22.8586 22.251 22.251C22.8586 21.6434 23.2 20.8193 23.2 19.96V12.04C23.2 10.249 21.751 8.8 19.96 8.8H12.04ZM20.725 10.15C21.0234 10.15 21.3095 10.2685 21.5205 10.4795C21.7315 10.6905 21.85 10.9766 21.85 11.275C21.85 11.5734 21.7315 11.8595 21.5205 12.0705C21.3095 12.2815 21.0234 12.4 20.725 12.4C20.4266 12.4 20.1405 12.2815 19.9295 12.0705C19.7185 11.8595 19.6 11.5734 19.6 11.275C19.6 10.9766 19.7185 10.6905 19.9295 10.4795C20.1405 10.2685 20.4266 10.15 20.725 10.15ZM16 11.5C17.1935 11.5 18.3381 11.9741 19.182 12.818C20.0259 13.6619 20.5 14.8065 20.5 16C20.5 17.1935 20.0259 18.3381 19.182 19.182C18.3381 20.0259 17.1935 20.5 16 20.5C14.8065 20.5 13.6619 20.0259 12.818 19.182C11.9741 18.3381 11.5 17.1935 11.5 16C11.5 14.8065 11.9741 13.6619 12.818 12.818C13.6619 11.9741 14.8065 11.5 16 11.5ZM16 13.3C15.2839 13.3 14.5972 13.5845 14.0908 14.0908C13.5845 14.5972 13.3 15.2839 13.3 16C13.3 16.7161 13.5845 17.4028 14.0908 17.9092C14.5972 18.4155 15.2839 18.7 16 18.7C16.7161 18.7 17.4028 18.4155 17.9092 17.9092C18.4155 17.4028 18.7 16.7161 18.7 16C18.7 15.2839 18.4155 14.5972 17.9092 14.0908C17.4028 13.5845 16.7161 13.3 16 13.3Z" fill="white"/>
</svg>
