<svg width="32" height="32" viewBox="0 0 32 32" fill="none" xmlns="http://www.w3.org/2000/svg">
<rect width="32" height="32" rx="16" fill="#1E1E1E"/>
<path d="M20.0173 24.1845L8.11487 8.88173C8.05213 8.80095 8.01333 8.70418 8.00287 8.60243C7.9924 8.50068 8.01071 8.39804 8.05569 8.30618C8.10067 8.21432 8.17053 8.13692 8.25732 8.08279C8.3441 8.02867 8.44434 7.99998 8.54662 8H10.8056C10.8888 8.00012 10.9708 8.01922 11.0455 8.05584C11.1201 8.09247 11.1854 8.14564 11.2365 8.21132L23.1389 23.5141C23.2017 23.5949 23.2405 23.6917 23.2509 23.7934C23.2614 23.8952 23.2431 23.9978 23.1981 24.0897C23.1531 24.1815 23.0833 24.2589 22.9965 24.313C22.9097 24.3672 22.8094 24.3959 22.7072 24.3958H20.4482C20.365 24.3957 20.283 24.3766 20.2083 24.34C20.1337 24.3034 20.0683 24.2502 20.0173 24.1845Z" stroke="white" stroke-width="1.5"/>
<path d="M22.9139 8L8.33986 24.3958" stroke="white" stroke-width="1.5" stroke-linecap="round"/>
</svg>
